<?xml version="1.0" encoding="utf-8"?>
<!-- Generator: Adobe Illustrator 22.1.0, SVG Export Plug-In . SVG Version: 6.00 Build 0)  -->
<svg version="1.0" id="Capa_1" xmlns="http://www.w3.org/2000/svg" xmlns:xlink="http://www.w3.org/1999/xlink" x="0px" y="0px"
	 viewBox="0 0 25.4 32.7" width="25.4" style="enable-background:new 0 0 25.4 32.7;" xml:space="preserve">
<style type="text/css">
	.st0{fill:#FFFFFF;}
	.st1{fill:#494949;}
	.st2{fill:#D5D5D5;}
</style>
<g>
	<polygon class="st0" points="2.4,9.3 23.3,9.2 12.8,31.5 	"/>
	<path class="st1" d="M22.5,9.7l-9.7,20.6L3.2,9.8L22.5,9.7 M24.1,8.7L1.6,8.8l11.2,23.9L24.1,8.7L24.1,8.7z"/>
</g>
<g>
	<path class="st2" d="M12.6,25.1c-6.7,0-12.2-5.5-12.2-12.2S5.9,0.7,12.6,0.7s12.2,5.5,12.2,12.2S19.4,25.1,12.6,25.1z"/>
	<path class="st1" d="M12.6,1.2c6.5,0,11.7,5.2,11.7,11.7s-5.2,11.7-11.7,11.7S0.9,19.4,0.9,12.9S6.2,1.2,12.6,1.2 M12.6,0.2
		c-7,0-12.7,5.7-12.7,12.7s5.7,12.7,12.7,12.7s12.7-5.7,12.7-12.7S19.6,0.2,12.6,0.2L12.6,0.2z"/>
</g>
<g id="Papelera_1_">
	<path class="st1" d="M16.8,9.3l-0.6,9.1c0,0.3-0.3,0.5-0.6,0.5H9.8c-0.3,0-0.5-0.3-0.6-0.5L8.6,9.3H8.1l0.6,9.2c0,0.6,0.5,1,1.1,1
		h5.9c0.6,0,1-0.4,1.1-1l0.6-9.2H16.8z"/>
	<path class="st1" d="M17.8,6.9H7.6C7.3,6.9,7,7.1,7,7.4v1.1c0,0.3,0.3,0.6,0.6,0.6h10.2c0.3,0,0.6-0.3,0.6-0.6V7.4
		C18.4,7.1,18.1,6.9,17.8,6.9z M17.8,8.5H7.6V7.4h10.2V8.5z"/>
	<path class="st1" d="M12.8,17.8c-0.1,0-0.1,0-0.1-0.1V10c0-0.1,0-0.1,0.1-0.1s0.1,0,0.1,0.1v7.7C13,17.8,12.9,17.8,12.8,17.8z"/>
	<path class="st1" d="M14.8,17.8L14.8,17.8c-0.1,0-0.1-0.1-0.1-0.1L15,10c0-0.1,0.1-0.1,0.1-0.1c0.1,0,0.1,0.1,0.1,0.1L15,17.7
		C15,17.8,14.9,17.8,14.8,17.8z"/>
	<path class="st1" d="M10.8,17.8c-0.1,0-0.1,0-0.1-0.1L10.4,10c0-0.1,0-0.1,0.1-0.1s0.1,0,0.1,0.1l0.3,7.7
		C10.9,17.8,10.9,17.8,10.8,17.8L10.8,17.8z"/>
	<path class="st1" d="M11.2,6.6V6.3c0-0.1,0.1-0.3,0.3-0.3h2.7c0.1,0,0.3,0.1,0.3,0.3v0.3H15V6.3c0-0.4-0.4-0.8-0.8-0.8h-2.7
		c-0.4,0-0.8,0.4-0.8,0.8v0.3C10.7,6.6,11.2,6.6,11.2,6.6z"/>
</g>
<polygon class="st2" points="12.8,30.4 8.6,21.4 17,21.5 "/>
</svg>
