<?xml version="1.0" encoding="utf-8"?>
<!-- Generator: Adobe Illustrator 22.1.0, SVG Export Plug-In . SVG Version: 6.00 Build 0)  -->
<svg version="1.0" id="Capa_1" xmlns="http://www.w3.org/2000/svg" xmlns:xlink="http://www.w3.org/1999/xlink" x="0px" y="0px"
	 viewBox="0 0 64 65" style="enable-background:new 0 0 64 65;" xml:space="preserve">
<style type="text/css">
	.st0{fill:#70CCC6;}
</style>
<path class="st0" d="M56.8,57.3L56.8,57.3c0.9-0.9,0.9-2.4,0-3.4L10.5,7.7c-0.9-0.9-2.4-0.9-3.4,0l0,0c-0.9,0.9-0.9,2.4,0,3.4
	l46.3,46.3C54.4,58.3,55.9,58.3,56.8,57.3z"/>
<path class="st0" d="M7.2,57.3L7.2,57.3c0.9,0.9,2.4,0.9,3.4,0L56.8,11c0.9-0.9,0.9-2.4,0-3.4l0,0c-0.9-0.9-2.4-0.9-3.4,0L7.2,54
	C6.2,54.9,6.2,56.4,7.2,57.3z"/>
</svg>
