<svg xmlns="http://www.w3.org/2000/svg" viewBox="0 0 320 320"><defs><style>.cls-1{opacity:0.85;}.cls-2,.cls-5,.cls-6{fill:none;}.cls-3{fill:#c5ebe7;}.cls-4{fill:#97dbd3;}.cls-5,.cls-6{stroke:#5fc9c0;stroke-linecap:round;stroke-miterlimit:10;}.cls-5{stroke-width:4px;}.cls-6{stroke-width:3px;}.cls-7{fill:#5fc9c0;}</style></defs><title>Ojos</title><g id="Capa_2" data-name="Capa 2"><g id="Trazo"><g id="Ojos" class="cls-1"><circle class="cls-2" cx="160" cy="160" r="160"/><path class="cls-3" d="M90.66,129.86c-1,7.65-5.74,35.4-5.88,36.65-.9,8.26,5.9,17.69,10.54,30,0,0,1.2,29.19,5,35.68,5.81,9.95,32.61,30.69,58.91,30.69,26.54,0,59.6-20.74,63.88-31.52,2.77-7,5.1-34.85,5.1-34.85,16.6-44,13.15-61.39,13.15-61.39"/><path class="cls-3" d="M89.48,137.9c.22-7.09,1.39-11.05,2.14-17.61,3.82-33.5,9.57-48.81,14.88-51.48,14.59-7.34,32.83-11.68,53.53-11.68,45,0,82.55,16.58,82.55,61.6a68.48,68.48,0,0,1-2.9,21.36"/><path class="cls-4" d="M105.69,69.86a38.24,38.24,0,0,0-23.23,5.93c-9.24,6.07-17.41,20.6-22.4,32.36-11.61,27.38-15.76,36.5-14.93,52.26.5,9.54,17.43,35.24,25.72,34.85C91.88,194.26,88.57,79.26,105.69,69.86Z"/><path class="cls-4" d="M215.26,69.86a35.91,35.91,0,0,1,22.28,5.93c9.24,6.07,17.41,20.6,22.4,32.36,11.61,27.38,15.76,36.5,14.93,52.26-.5,9.54-17.43,35.24-25.72,34.85C228.12,194.26,232.38,79.26,215.26,69.86Z"/><line class="cls-5" x1="159.9" y1="188.34" x2="159.9" y2="197.46"/><path class="cls-6" d="M159.32,196.22c0,8.25-8.31,14.93-18.58,14.93s-18.17-6.27-18.17-14.52"/><path class="cls-6" d="M196,196.22c0,8.25-8,14.93-17.83,14.93s-17.84-6.68-17.84-14.93"/><path class="cls-7" d="M180.36,171c0,5.3-8.54,16-19.53,16s-20.29-10.7-20.29-16,8.91-11.37,19.91-11.37S180.36,165.66,180.36,171Z"/><path class="cls-7" d="M199.86,126.81c0,4.59-3.72,5.81-8.3,5.81s-8.3-1.22-8.3-5.81S187,116,191.56,116,199.86,122.23,199.86,126.81Z"/><path class="cls-7" d="M117.72,126.81c0,4.59,3.72,5.81,8.3,5.81s8.3-1.22,8.3-5.81S130.6,116,126,116,117.72,122.23,117.72,126.81Z"/></g></g></g></svg>