<svg width="133" height="133" viewBox="0 0 133 133" fill="none" xmlns="http://www.w3.org/2000/svg">
<path d="M130.5 66.5C130.5 101.846 101.846 130.5 66.5 130.5C31.1538 130.5 2.5 101.846 2.5 66.5C2.5 31.1538 31.1538 2.5 66.5 2.5C101.846 2.5 130.5 31.1538 130.5 66.5Z" fill="white" stroke="#70CCC6" stroke-width="5"/>
<g clip-path="url(#clip0)">
<path d="M48.5786 104.669C56.7583 107 65.2543 107.493 73.9312 106.641C78.134 106.193 82.0205 105.207 85.7714 103.773C90.6973 101.89 94.855 99.3351 99.1482 96.8698C99.5549 96.4215 99.8713 95.8837 100.368 95.4802C104.436 91.9392 107.554 87.9947 109 83.4226C108.729 81.3159 108.864 79.2092 108.141 77.1473C107.147 74.413 105.159 72.4408 101.272 71.6788C100.549 71.9925 100.323 72.5304 100.007 73.0235C98.3347 75.6233 95.2165 77.1921 91.9175 78.4023C86.5397 80.4194 80.7099 81.4504 74.609 81.8538C63.4467 82.6158 52.4651 82.302 41.9806 79.1195C37.4614 77.73 33.2585 75.8922 31.3153 72.2615C31.1797 71.9925 30.6826 71.8132 30.3211 71.5891C27.4288 72.1718 25.5308 73.4717 24.3558 75.5336C22.9096 78.1334 22.8644 80.778 23.0452 83.5123C23.226 84.2743 23.4067 85.0363 23.5875 85.7983C24.5365 87.6361 25.7115 89.3842 26.9769 91.0875C28.4682 93.0598 30.773 94.5838 32.2643 96.5112C32.5807 96.6457 32.9422 96.7801 33.2134 96.9594C37.5518 100.321 42.794 102.742 48.5786 104.669Z" fill="#91D8D0"/>
<path d="M92.0079 38.6884C89.6127 31.4269 84.3705 27.1238 76.959 24.6137C67.8755 21.5208 59.9217 23.6724 61.5486 24.6585C62.7688 25.4205 72.3947 25.1067 73.3889 30.7545C73.7052 32.9061 72.3947 33.6233 71.4908 34.0715C69.5928 35.0128 69.1408 34.9232 67.5139 35.0128C64.0794 35.1921 62.3621 34.7439 57.2102 35.5507C52.0583 36.3575 50.5218 36.8058 46.9969 39.047C43.4719 41.2882 42.2969 43.0811 41.4383 46.3084C40.7152 48.8634 41.5287 51.1943 41.5738 53.6147C43.4719 55.4077 45.0084 57.5592 47.2228 58.9936C53.1881 62.8485 59.9669 64.4173 66.9716 64.1484C73.2081 63.8794 79.1282 62.2658 84.1897 58.3213C86.2685 56.7524 87.3531 54.3319 89.7031 53.0769C89.2964 52.1804 90.0195 51.5528 90.381 50.8805C92.3694 46.936 93.1377 42.9018 92.0079 38.6884Z" fill="#91D8D0"/>
<path d="M101.272 71.1858C100.82 69.9755 101.317 68.7653 101.317 67.5102C101.363 59.8005 97.0242 53.8837 89.206 51.2839C86.9012 52.7183 85.7714 55.4077 83.7378 57.2007C78.6763 61.6383 72.7562 63.476 66.5197 63.7898C59.4698 64.1036 52.7362 62.3554 46.7257 58.0075C44.4661 56.3939 42.9748 53.9285 41.0315 51.9563C33.3941 55.2284 30.0951 60.7418 30.5922 69.5273C30.6374 70.11 30.7278 70.6927 30.3663 71.1858C30.6826 71.4995 31.2249 71.7685 31.3605 72.1719C33.3037 77.5507 37.5066 80.285 42.0258 82.3021C52.5103 87.0086 63.4919 87.5017 74.6542 86.3362C80.7551 85.7087 86.5397 84.1399 91.9627 81.1367C95.2617 79.3437 98.3347 76.968 100.052 73.158C100.323 72.4408 100.549 71.634 101.272 71.1858Z" fill="#91D8D0"/>
<path d="M42.4325 53.5699C46.093 56.0801 49.8891 58.3213 53.9564 59.8453C54.2276 59.9349 54.4535 60.0694 54.7247 60.1142L55.4929 60.3383C55.99 60.4728 56.5323 60.6969 57.0294 60.8314L58.6112 61.19C58.8823 61.2796 59.1535 61.3245 59.3794 61.3693L60.1477 61.5038C62.2717 61.8624 64.3957 61.9968 66.5197 61.8624C70.7678 61.6382 74.9706 60.4728 78.8571 58.635C80.8003 57.6937 82.6984 56.618 84.5061 55.4077C85.4099 54.825 86.3137 54.1526 87.1724 53.4803C87.6243 53.1665 88.031 52.8079 88.4829 52.4493C88.8897 52.0907 89.3416 51.7322 89.7031 51.3287C89.1156 52.27 88.3474 53.1217 87.6243 53.9285C86.856 54.7354 86.0426 55.4974 85.1839 56.2594C83.4667 57.7386 81.659 59.0384 79.6705 60.159C75.7389 62.4002 71.2197 63.8346 66.6101 64.1035C64.3053 64.238 62.0005 64.0587 59.741 63.6105L58.8823 63.4312C58.6112 63.3864 58.34 63.2967 58.0689 63.2071L56.442 62.714C55.8997 62.5347 55.3574 62.3106 54.815 62.1313L54.0016 61.8175C53.7304 61.7279 53.5045 61.5934 53.2333 61.4589C49.1209 59.5315 45.4603 56.7973 42.4325 53.5699Z" fill="#41877D"/>
<path d="M30.3663 71.4995C35.4729 75.7578 40.896 79.5678 46.8161 82.3469C52.7362 85.126 59.1534 86.7396 65.6159 86.7845C68.8697 86.8293 72.0783 86.4707 75.2869 85.7983C78.4503 85.126 81.5686 84.095 84.5964 82.7951C86.0878 82.1676 87.5791 81.4504 89.0252 80.6884C90.4714 79.9264 91.8723 79.0748 93.2732 78.2231C94.6742 77.3714 96.0299 76.3853 97.3405 75.3992C98.0184 74.9061 98.6511 74.4131 99.2838 73.8752C99.9164 73.3373 100.594 72.8442 101.137 72.2167C100.142 73.5614 98.9674 74.7268 97.7472 75.8923C96.5271 77.0577 95.2617 78.0886 93.9059 79.1196C91.2396 81.1367 88.3473 82.9296 85.3195 84.4088C82.2916 85.9328 79.083 87.0534 75.784 87.8602C72.485 88.6671 69.0504 89.0705 65.6159 89.0257C62.1813 88.9808 58.7919 88.4878 55.4929 87.6361C53.866 87.1879 52.2391 86.65 50.6574 86.0225C49.0757 85.3949 47.5392 84.6777 46.0478 83.8709C40.0825 80.7332 34.8403 76.4301 30.3663 71.4995Z" fill="#41877D"/>
</g>
<defs>
<clipPath id="clip0">
<rect width="86" height="84" fill="white" transform="translate(23 23)"/>
</clipPath>
</defs>
</svg>
