<?xml version="1.0" encoding="utf-8"?>
<!-- Generator: Adobe Illustrator 22.1.0, SVG Export Plug-In . SVG Version: 6.00 Build 0)  -->
<svg version="1.0" id="Capa_1" xmlns="http://www.w3.org/2000/svg" xmlns:xlink="http://www.w3.org/1999/xlink" x="0px" y="0px"
	 viewBox="0 0 133 133" style="enable-background:new 0 0 133 133;" xml:space="preserve">
<style type="text/css">
	.st0{fill:#FFFFFF;stroke:#D67171;stroke-width:5;}
	.st1{clip-path:url(#SVGID_2_);}
	.st2{fill:#91D8D0;}
	.st3{fill:#41877D;}
	.st4{clip-path:url(#SVGID_4_);}
	.st5{fill:#E09090;}
	.st6{fill:#D67171;}
</style>
<path class="st0" d="M130.5,66.5c0,35.3-28.7,64-64,64c-35.3,0-64-28.7-64-64c0-35.3,28.7-64,64-64C101.8,2.5,130.5,31.2,130.5,66.5
	z"/>
<g>
	<defs>
		<rect id="SVGID_1_" x="23" y="23" width="86" height="84"/>
	</defs>
	<clipPath id="SVGID_2_">
		<use xlink:href="#SVGID_1_"  style="overflow:visible;"/>
	</clipPath>
	<g class="st1">
		<path class="st2" d="M48.6,104.7c8.2,2.3,16.7,2.8,25.4,2c4.2-0.4,8.1-1.4,11.8-2.9c4.9-1.9,9.1-4.4,13.4-6.9
			c0.4-0.4,0.7-1,1.2-1.4c4.1-3.5,7.2-7.5,8.6-12.1c-0.3-2.1-0.1-4.2-0.9-6.3c-1-2.7-3-4.7-6.9-5.5c-0.7,0.3-0.9,0.9-1.3,1.3
			c-1.7,2.6-4.8,4.2-8.1,5.4c-5.4,2-11.2,3-17.3,3.5c-11.2,0.8-22.1,0.4-32.6-2.7c-4.5-1.4-8.7-3.2-10.7-6.9c-0.1-0.3-0.6-0.4-1-0.7
			c-2.9,0.6-4.8,1.9-6,3.9c-1.4,2.6-1.5,5.2-1.3,8c0.2,0.8,0.4,1.5,0.5,2.3c0.9,1.8,2.1,3.6,3.4,5.3c1.5,2,3.8,3.5,5.3,5.4
			c0.3,0.1,0.7,0.3,0.9,0.4C37.6,100.3,42.8,102.7,48.6,104.7z"/>
		<path class="st2" d="M92,38.7c-2.4-7.3-7.6-11.6-15-14.1c-9.1-3.1-17-0.9-15.4,0c1.2,0.8,10.8,0.4,11.8,6.1c0.3,2.2-1,2.9-1.9,3.3
			c-1.9,0.9-2.3,0.9-4,0.9c-3.4,0.2-5.2-0.3-10.3,0.5c-5.2,0.8-6.7,1.3-10.2,3.5c-3.5,2.2-4.7,4-5.6,7.3c-0.7,2.6,0.1,4.9,0.1,7.3
			c1.9,1.8,3.4,3.9,5.6,5.4c6,3.9,12.7,5.4,19.7,5.2c6.2-0.3,12.2-1.9,17.2-5.8c2.1-1.6,3.2-4,5.5-5.2c-0.4-0.9,0.3-1.5,0.7-2.2
			C92.4,46.9,93.1,42.9,92,38.7z"/>
		<path class="st2" d="M101.3,71.2c-0.5-1.2,0-2.4,0-3.7c0-7.7-4.3-13.6-12.1-16.2c-2.3,1.4-3.4,4.1-5.5,5.9
			c-5.1,4.4-11,6.3-17.2,6.6c-7,0.3-13.8-1.4-19.8-5.8C44.5,56.4,43,53.9,41,52c-7.6,3.3-10.9,8.8-10.4,17.6c0,0.6,0.1,1.2-0.2,1.7
			c0.3,0.3,0.9,0.6,1,1c1.9,5.4,6.1,8.1,10.7,10.1c10.5,4.7,21.5,5.2,32.6,4c6.1-0.6,11.9-2.2,17.3-5.2c3.3-1.8,6.4-4.2,8.1-8
			C100.3,72.4,100.5,71.6,101.3,71.2z"/>
		<path class="st3" d="M42.4,53.6c3.7,2.5,7.5,4.8,11.5,6.3c0.3,0.1,0.5,0.2,0.8,0.3l0.8,0.2c0.5,0.1,1,0.4,1.5,0.5l1.6,0.4
			c0.3,0.1,0.5,0.1,0.8,0.2l0.8,0.1c2.1,0.4,4.2,0.5,6.4,0.4c4.2-0.2,8.5-1.4,12.3-3.2c1.9-0.9,3.8-2,5.6-3.2
			c0.9-0.6,1.8-1.3,2.7-1.9c0.5-0.3,0.9-0.7,1.3-1c0.4-0.4,0.9-0.7,1.2-1.1c-0.6,0.9-1.4,1.8-2.1,2.6c-0.8,0.8-1.6,1.6-2.4,2.3
			c-1.7,1.5-3.5,2.8-5.5,3.9c-3.9,2.2-8.5,3.7-13.1,3.9c-2.3,0.1-4.6,0-6.9-0.5l-0.9-0.2c-0.3,0-0.5-0.1-0.8-0.2l-1.6-0.5
			c-0.5-0.2-1.1-0.4-1.6-0.6L54,61.8c-0.3-0.1-0.5-0.2-0.8-0.4C49.1,59.5,45.5,56.8,42.4,53.6z"/>
		<path class="st3" d="M30.4,71.5c5.1,4.3,10.5,8.1,16.4,10.8s12.3,4.4,18.8,4.4c3.3,0,6.5-0.3,9.7-1c3.2-0.7,6.3-1.7,9.3-3
			c1.5-0.6,3-1.3,4.4-2.1c1.4-0.8,2.8-1.6,4.2-2.5c1.4-0.9,2.8-1.8,4.1-2.8c0.7-0.5,1.3-1,1.9-1.5c0.6-0.5,1.3-1,1.9-1.7
			c-1,1.3-2.2,2.5-3.4,3.7c-1.2,1.2-2.5,2.2-3.8,3.2c-2.7,2-5.6,3.8-8.6,5.3c-3,1.5-6.2,2.6-9.5,3.5c-3.3,0.8-6.7,1.2-10.2,1.2
			c-3.4,0-6.8-0.5-10.1-1.4c-1.6-0.4-3.3-1-4.8-1.6c-1.6-0.6-3.1-1.3-4.6-2.2C40.1,80.7,34.8,76.4,30.4,71.5z"/>
	</g>
</g>
<g>
	<defs>
		<rect id="SVGID_3_" x="23" y="23" width="86" height="84"/>
	</defs>
	<clipPath id="SVGID_4_">
		<use xlink:href="#SVGID_3_"  style="overflow:visible;"/>
	</clipPath>
	<g class="st4">
		<path class="st5" d="M48.6,104.7c8.2,2.3,16.7,2.8,25.4,2c4.2-0.4,8.1-1.4,11.8-2.9c4.9-1.9,9.1-4.4,13.4-6.9
			c0.4-0.4,0.7-1,1.2-1.4c4.1-3.5,7.2-7.5,8.6-12.1c-0.3-2.1-0.1-4.2-0.9-6.3c-1-2.7-3-4.7-6.9-5.5c-0.7,0.3-0.9,0.9-1.3,1.3
			c-1.7,2.6-4.8,4.2-8.1,5.4c-5.4,2-11.2,3-17.3,3.5c-11.2,0.8-22.1,0.4-32.6-2.7c-4.5-1.4-8.7-3.2-10.7-6.9c-0.1-0.3-0.6-0.4-1-0.7
			c-2.9,0.6-4.8,1.9-6,3.9c-1.4,2.6-1.5,5.2-1.3,8c0.2,0.8,0.4,1.5,0.5,2.3c0.9,1.8,2.1,3.6,3.4,5.3c1.5,2,3.8,3.5,5.3,5.4
			c0.3,0.1,0.7,0.3,0.9,0.4C37.6,100.3,42.8,102.7,48.6,104.7z"/>
		<path class="st5" d="M92,38.7c-2.4-7.3-7.6-11.6-15-14.1c-9.1-3.1-17-0.9-15.4,0c1.2,0.8,10.8,0.4,11.8,6.1c0.3,2.2-1,2.9-1.9,3.3
			c-1.9,0.9-2.3,0.9-4,0.9c-3.4,0.2-5.2-0.3-10.3,0.5c-5.2,0.8-6.7,1.3-10.2,3.5c-3.5,2.2-4.7,4-5.6,7.3c-0.7,2.6,0.1,4.9,0.1,7.3
			c1.9,1.8,3.4,3.9,5.6,5.4c6,3.9,12.7,5.4,19.7,5.2c6.2-0.3,12.2-1.9,17.2-5.8c2.1-1.6,3.2-4,5.5-5.2c-0.4-0.9,0.3-1.5,0.7-2.2
			C92.4,46.9,93.1,42.9,92,38.7z"/>
		<path class="st5" d="M101.3,71.2c-0.5-1.2,0-2.4,0-3.7c0-7.7-4.3-13.6-12.1-16.2c-2.3,1.4-3.4,4.1-5.5,5.9
			c-5.1,4.4-11,6.3-17.2,6.6c-7,0.3-13.8-1.4-19.8-5.8C44.5,56.4,43,53.9,41,52c-7.6,3.3-10.9,8.8-10.4,17.6c0,0.6,0.1,1.2-0.2,1.7
			c0.3,0.3,0.9,0.6,1,1c1.9,5.4,6.1,8.1,10.7,10.1c10.5,4.7,21.5,5.2,32.6,4c6.1-0.6,11.9-2.2,17.3-5.2c3.3-1.8,6.4-4.2,8.1-8
			C100.3,72.4,100.5,71.6,101.3,71.2z"/>
		<path class="st6" d="M42.4,53.6c3.7,2.5,7.5,4.8,11.5,6.3c0.3,0.1,0.5,0.2,0.8,0.3l0.8,0.2c0.5,0.1,1,0.4,1.5,0.5l1.6,0.4
			c0.3,0.1,0.5,0.1,0.8,0.2l0.8,0.1c2.1,0.4,4.2,0.5,6.4,0.4c4.2-0.2,8.5-1.4,12.3-3.2c1.9-0.9,3.8-2,5.6-3.2
			c0.9-0.6,1.8-1.3,2.7-1.9c0.5-0.3,0.9-0.7,1.3-1c0.4-0.4,0.9-0.7,1.2-1.1c-0.6,0.9-1.4,1.8-2.1,2.6c-0.8,0.8-1.6,1.6-2.4,2.3
			c-1.7,1.5-3.5,2.8-5.5,3.9c-3.9,2.2-8.5,3.7-13.1,3.9c-2.3,0.1-4.6,0-6.9-0.5l-0.9-0.2c-0.3,0-0.5-0.1-0.8-0.2l-1.6-0.5
			c-0.5-0.2-1.1-0.4-1.6-0.6L54,61.8c-0.3-0.1-0.5-0.2-0.8-0.4C49.1,59.5,45.5,56.8,42.4,53.6z"/>
		<path class="st6" d="M30.4,71.5c5.1,4.3,10.5,8.1,16.4,10.8s12.3,4.4,18.8,4.4c3.3,0,6.5-0.3,9.7-1c3.2-0.7,6.3-1.7,9.3-3
			c1.5-0.6,3-1.3,4.4-2.1c1.4-0.8,2.8-1.6,4.2-2.5c1.4-0.9,2.8-1.8,4.1-2.8c0.7-0.5,1.3-1,1.9-1.5c0.6-0.5,1.3-1,1.9-1.7
			c-1,1.3-2.2,2.5-3.4,3.7c-1.2,1.2-2.5,2.2-3.8,3.2c-2.7,2-5.6,3.8-8.6,5.3c-3,1.5-6.2,2.6-9.5,3.5c-3.3,0.8-6.7,1.2-10.2,1.2
			c-3.4,0-6.8-0.5-10.1-1.4c-1.6-0.4-3.3-1-4.8-1.6c-1.6-0.6-3.1-1.3-4.6-2.2C40.1,80.7,34.8,76.4,30.4,71.5z"/>
	</g>
</g>
</svg>
