<svg width="64" height="83" viewBox="0 0 64 83" fill="none" xmlns="http://www.w3.org/2000/svg">
<path d="M32 64.7C49.6731 64.7 64 50.3731 64 32.7C64 15.0269 49.6731 0.700012 32 0.700012C14.3269 0.700012 0 15.0269 0 32.7C0 50.3731 14.3269 64.7 32 64.7Z" fill="#70CCC6"/>
<path d="M32.3 82.6L4 22.3L60.7 22L32.3 82.6Z" fill="#70CCC6"/>
<path d="M41.1958 24.837H41.0781L41.071 24.9545L39.7531 46.7445L39.7528 46.7445V46.752C39.7528 47.3749 39.2052 47.8571 38.5599 47.8571H24.5018C23.8779 47.8571 23.3918 47.3071 23.3083 46.7393L21.9907 24.9545L21.9836 24.837H21.8659H20.548H20.4152L20.4232 24.9696L21.7412 46.8474L21.7412 46.8482C21.8331 48.2269 23.0254 49.425 24.414 49.425H38.472C39.8575 49.425 41.0529 48.3178 41.1448 46.8477L41.1448 46.8474L42.4628 24.9696L42.4708 24.837H42.338H41.1958Z" fill="white" stroke="white" stroke-width="0.25"/>
<path d="M43.656 19.1259H19.3179C18.546 19.1259 17.875 19.7969 17.875 20.5689V23.1169C17.875 23.8888 18.546 24.5598 19.3179 24.5598H43.656C44.4279 24.5598 45.0989 23.8888 45.0989 23.1169V20.5689C45.0989 19.7036 44.4223 19.1259 43.656 19.1259ZM43.531 22.904H19.4429V20.606H43.531V22.904Z" fill="white" stroke="white" stroke-width="0.25"/>
<path d="M31.318 44.9947C31.318 45.1566 31.3734 45.2825 31.4728 45.3653C31.5682 45.4448 31.688 45.4712 31.7944 45.4712C31.9009 45.4712 32.0207 45.4448 32.1161 45.3653C32.2155 45.2825 32.2709 45.1566 32.2709 44.9947V26.5435C32.2709 26.4048 32.2494 26.2726 32.1574 26.1806C32.0654 26.0886 31.9332 26.0671 31.7944 26.0671C31.6326 26.0671 31.5067 26.1225 31.4238 26.2219C31.3444 26.3173 31.318 26.4371 31.318 26.5435V44.9947Z" fill="white" stroke="white" stroke-width="0.25"/>
<path d="M36.0627 44.99L36.0626 44.99V44.9947C36.0626 45.1232 36.1256 45.2413 36.209 45.3247C36.2925 45.4082 36.4105 45.4712 36.539 45.4712C36.6455 45.4712 36.7653 45.4448 36.8607 45.3653C36.9596 45.2829 37.0149 45.1579 37.0155 44.9972L37.7183 26.5483L37.7184 26.5483V26.5435C37.7184 26.415 37.6554 26.297 37.572 26.2135C37.4885 26.1301 37.3705 26.0671 37.2419 26.0671C37.1134 26.0671 36.9954 26.1301 36.9119 26.2135C36.8291 26.2964 36.7664 26.4134 36.7655 26.5409L36.0627 44.99Z" fill="white" stroke="white" stroke-width="0.25"/>
<path d="M25.6069 26.5435H25.6068L25.607 26.5489L26.3977 44.9975C26.3983 45.158 26.4537 45.283 26.5525 45.3653C26.6479 45.4448 26.7677 45.4712 26.8742 45.4712C27.0129 45.4712 27.1451 45.4497 27.2371 45.3577C27.3291 45.2657 27.3506 45.1334 27.3506 44.9947H27.3507L27.3505 44.9894L26.5598 26.5407C26.5592 26.3802 26.5038 26.2553 26.405 26.1729C26.3096 26.0934 26.1898 26.0671 26.0834 26.0671C25.9215 26.0671 25.7956 26.1225 25.7128 26.2219C25.6333 26.3173 25.6069 26.4371 25.6069 26.5435Z" fill="white" stroke="white" stroke-width="0.25"/>
<path d="M27.9285 18.673H28.0535V18.548V17.933C28.0535 17.6506 28.2611 17.4429 28.5435 17.4429H34.9575C35.2399 17.4429 35.4475 17.6506 35.4475 17.933V18.548V18.673H35.5725H36.8905H37.0155V18.548V17.933C37.0155 16.8096 36.0809 15.875 34.9575 15.875H28.5435C27.4201 15.875 26.4855 16.8096 26.4855 17.933V18.548V18.673H26.6105H27.9285Z" fill="white" stroke="white" stroke-width="0.25"/>
</svg>
