<svg width="57" height="57" viewBox="0 0 57 57" fill="none" xmlns="http://www.w3.org/2000/svg">
<g opacity="0.8">
<path d="M21.9421 37.8668L22.3403 37.469L21.8983 37.1205C21.5387 36.837 21.1981 36.5437 20.8807 36.2262C20.5582 35.9038 20.2596 35.5708 19.99 35.2204L19.6428 34.7691L19.2402 35.1717L10.4265 43.9853L10.0966 44.3152L10.4029 44.6672C10.7466 45.062 11.111 45.4481 11.4882 45.8253C11.7896 46.1267 12.0972 46.4273 12.4221 46.7152L12.7742 47.0273L13.1071 46.6947L21.9421 37.8668Z" fill="white" stroke="white"/>
<path d="M38.1232 34.9223L37.7155 34.5147L37.3696 34.9759C37.0413 35.4136 36.6865 35.8299 36.2983 36.2253C36.0423 36.4743 35.7833 36.7124 35.5134 36.9351L35.089 37.2852L35.478 37.6743L44.3914 46.5877L44.7307 46.927L45.0837 46.6019C45.3576 46.3496 45.6265 46.0953 45.8965 45.8253C46.3108 45.411 46.7108 44.9819 47.0893 44.5452L47.3942 44.1934L47.065 43.8642L38.1232 34.9223Z" fill="white" stroke="white"/>
<path d="M46.7659 13.0359L47.1024 12.6992L46.7826 12.3466C46.4998 12.0348 46.2014 11.7217 45.8944 11.422C45.5228 11.0504 45.1312 10.688 44.7423 10.3423L44.3899 10.0291L44.0566 10.3625L35.2429 19.1761L34.8403 19.5787L35.2916 19.9259C35.6421 20.1955 35.975 20.4941 36.2974 20.8166C36.6199 21.139 36.9185 21.4719 37.1881 21.8224L37.5354 22.2739L37.9381 21.8709L46.7659 13.0359Z" fill="white" stroke="white"/>
<path d="M13.4493 10.2485L13.1169 9.91614L12.7647 10.2273C12.3331 10.6085 11.9044 11.0008 11.4882 11.417C11.2182 11.6869 10.9639 11.9559 10.7116 12.2298L10.3865 12.5827L10.7258 12.9221L19.4325 21.6288L19.8216 22.0179L20.1718 21.5935C20.3979 21.3193 20.629 21.0612 20.8791 20.811C21.2776 20.4195 21.6936 20.0585 22.1269 19.7403L22.5963 19.3955L22.1845 18.9837L13.4493 10.2485Z" fill="white" stroke="white"/>
<path d="M44.0182 9.79149L43.6735 10.1362L43.362 10.4477L43.0138 10.1779C38.9262 7.0111 33.9467 5.29513 28.6924 5.29513C23.4941 5.29513 18.5569 6.98316 14.505 10.1005L14.1584 10.3672L13.8479 10.0592L12.9145 9.13291L12.8908 9.10936L12.8704 9.08286L12.7992 8.99024L12.4966 8.59689L12.8877 8.29137C14.7491 6.83713 16.7988 5.65984 18.9995 4.76647L19 4.76627C22.0874 3.51681 25.3431 2.87726 28.6924 2.87726C32.0336 2.87726 35.2966 3.50932 38.3851 4.76645C41.5829 6.06019 44.4462 7.96454 46.9081 10.4264C46.9082 10.4265 46.9082 10.4265 46.9083 10.4266L46.5547 10.7801L44.0182 9.79149ZM44.0182 9.79149L44.1706 9.94381L44.3229 10.0961M44.0182 9.79149L44.3229 10.0961M44.3229 10.0961L44.0708 10.3482L43.6958 10.7232L44.0922 11.0755C44.4722 11.4132 44.8422 11.7554 45.2037 12.1169C45.5008 12.414 45.7845 12.7049 46.0523 13.007L46.4045 13.4044L46.78 13.0289L47.0179 12.7911L47.1702 12.9434L47.3225 13.0958L46.9992 13.4191L46.6827 13.7355L46.9623 14.085C50.2541 18.1997 52.0397 23.2693 52.0397 28.6211C52.0397 33.8198 50.3585 38.7569 47.2414 42.8085L46.9737 43.1565L47.2842 43.4669L47.4994 43.6821L47.1972 43.9821L47.0793 43.8642L46.6996 43.4845L46.3479 43.8903C45.9854 44.3086 45.6016 44.7203 45.2037 45.1182C44.9464 45.3755 44.6881 45.6199 44.4205 45.8663L44.0373 46.2193L44.4057 46.5877L44.501 46.683L44.2011 46.9829L44.0274 46.8115L43.7093 46.4978L43.3619 46.7787C34.8805 53.6349 22.6792 53.6629 14.1699 46.8763L13.8205 46.5977L13.6087 46.8095L13.4564 46.6572L13.3041 46.5049L13.4856 46.3233L13.0968 45.9706C12.7966 45.6984 12.4961 45.4119 12.2024 45.1182C11.848 44.7637 11.4986 44.3866 11.1609 44.0067L10.8086 43.6104L10.6091 43.8099L10.4568 43.6576L10.3045 43.5052L10.5339 43.2758L10.2627 42.9274C3.65054 34.432 3.74147 22.3704 10.5276 13.9802L10.8106 13.6304L10.4924 13.3122L9.60891 12.4287L9.59035 12.4101L9.56996 12.3936L9.42033 12.2725L9.03358 11.9594L8.71863 12.3447C7.0907 14.336 5.78275 16.5452 4.80942 18.9349L4.80938 18.935C3.55211 22.0237 2.91998 25.2869 2.91998 28.6283C2.91998 31.9776 3.55953 35.2332 4.809 38.3206L4.80934 38.3214C6.10991 41.5183 8.01397 44.3888 10.4693 46.8442C12.9311 49.306 15.7943 51.2103 18.992 52.5041L44.3229 10.0961ZM38.3784 52.5041L38.3776 52.5045C35.2901 53.754 32.0273 54.3935 28.6852 54.3935C25.344 54.3935 22.081 53.7614 18.9925 52.5043L38.3784 52.5041ZM38.3784 52.5041C41.5753 51.2036 44.4458 49.2995 46.9012 46.8442C49.363 44.3824 51.2673 41.5192 52.5611 38.3215L38.3784 52.5041Z" fill="white" stroke="white"/>
<path d="M47.977 42.7598L47.5765 42.3593L47.2288 42.8064C47.0825 42.9945 46.9357 43.1763 46.7856 43.3621C46.6438 43.5377 46.494 43.708 46.3361 43.8874L46.0262 44.2396L46.3579 44.5713L46.8282 45.0415L47.1805 45.3938L47.534 45.0428L48.5458 44.0381L48.9019 43.6846L48.547 43.3298L47.977 42.7598Z" fill="white" stroke="white"/>
<path d="M47.863 12.2435L47.5074 11.8879L47.1539 12.2455L46.5269 12.8796L46.1989 13.2113L46.5071 13.5615C46.6557 13.7303 46.7987 13.9073 46.9495 14.0939L47.2988 14.5265L47.692 14.1333L48.3689 13.4564L48.7224 13.1029L48.3689 12.7493L47.863 12.2435Z" fill="white" stroke="white"/>
<path d="M38.914 33.6968L38.4494 33.2322L38.1255 33.8039C38.0084 34.0105 37.8857 34.2148 37.7575 34.4105L37.5346 34.7507L37.8223 35.0382L46.8212 44.03L47.2054 44.4139L47.5563 43.9992C47.7178 43.8084 47.8746 43.6144 48.0253 43.411L48.2818 43.0646L47.977 42.7598L38.914 33.6968Z" fill="white" stroke="white"/>
<path d="M47.3572 11.7376L47.0036 11.384L46.65 11.7376L46.0587 12.329L45.7196 12.6681L46.0443 13.021C46.2034 13.194 46.3526 13.3637 46.4935 13.5382L46.8429 13.9707L47.236 13.5776L47.863 12.9506L48.2166 12.597L47.863 12.2435L47.3572 11.7376Z" fill="white" stroke="white"/>
<path d="M47.6922 14.126L48.0098 13.8081L47.7274 13.4585L47.7244 13.4547C47.5768 13.272 47.4216 13.0798 47.2578 12.8937L46.9056 12.4934L46.5288 12.8706L37.6581 21.7483L37.3661 22.0406L37.5981 22.3825C37.7309 22.5782 37.8593 22.7745 37.9724 22.9674L38.2998 23.5259L38.7574 23.0679L47.6922 14.126Z" fill="white" stroke="white"/>
<path d="M38.5291 34.3308L38.0905 33.8925L37.7551 34.4141C37.6313 34.6068 37.5022 34.7968 37.3678 34.9783L37.1113 35.3245L37.4159 35.6293L46.3578 44.5783L46.742 44.9628L47.0932 44.5479C47.1385 44.4943 47.1856 44.4393 47.2337 44.3832C47.3428 44.2557 47.4566 44.1229 47.5636 43.9904L47.8462 43.6405L47.528 43.3226L38.5291 34.3308Z" fill="white" stroke="white"/>
<path d="M47.236 13.5776L47.5613 13.2523L47.2642 12.9011C47.1042 12.712 46.9447 12.5307 46.7888 12.3536L46.7876 12.3522L46.4355 11.9521L46.0587 12.329L37.2308 21.1568L36.9187 21.469L37.1897 21.8174C37.3346 22.0038 37.4704 22.1872 37.5981 22.3754L37.9377 22.8759L38.3654 22.4482L47.236 13.5776Z" fill="white" stroke="white"/>
<path d="M45.5474 47.0366L45.901 46.683L45.5474 46.3295L45.0985 45.8806L44.7524 45.5345L44.399 45.8731C44.2786 45.9886 44.153 46.098 44.0185 46.2152C43.9747 46.2535 43.9299 46.2925 43.884 46.3329C43.7007 46.488 43.5272 46.6336 43.3478 46.7785L42.9123 47.1303L43.3108 47.5235L43.8381 48.0436L44.1916 48.3923L44.5428 48.0412L45.5474 47.0366Z" fill="white" stroke="white"/>
<path d="M44.8634 9.24383L44.5079 8.88831L44.1543 9.24579L43.5131 9.89416L43.1317 10.2798L43.547 10.6286C43.7246 10.7778 43.9062 10.9315 44.0798 11.0842L44.4319 11.3941L44.7636 11.0624L45.3693 10.4568L45.7228 10.1033L45.3693 9.7497L44.8634 9.24383Z" fill="white" stroke="white"/>
<path d="M36.1852 36.9672L35.8672 36.6493L35.5174 36.9318C35.3369 37.0776 35.1501 37.2229 34.964 37.3607L34.4977 37.7061L34.9082 38.1162L43.8106 47.0115L44.135 47.444L44.5409 47.0868L44.543 47.085C44.7199 46.9294 44.9014 46.7696 45.0835 46.6021L45.4671 46.2492L45.0985 45.8806L36.1852 36.9672Z" fill="white" stroke="white"/>
<path d="M44.3647 8.73797L44.0093 8.38261L43.6558 8.73977L42.9575 9.44514L42.559 9.84778L43.008 10.1932C43.1869 10.3308 43.3661 10.4755 43.5456 10.6275L43.8968 10.9246L44.2222 10.5993L44.8705 9.95095L45.2241 9.59739L44.8705 9.24384L44.3647 8.73797Z" fill="white" stroke="white"/>
<path d="M44.7635 11.0626L45.1406 10.6857L44.7404 10.3335C44.5586 10.1735 44.3703 10.0142 44.1863 9.85848L44.1844 9.85692L43.8332 9.55975L43.5079 9.88506L34.6515 18.7414L34.2238 19.1691L34.7243 19.5087C34.9125 19.6365 35.096 19.7722 35.2823 19.9172L35.6306 20.188L35.9427 19.8762L44.7635 11.0626Z" fill="white" stroke="white"/>
<path d="M44.5892 46.383L44.5679 46.3545L44.5427 46.3293L35.6151 37.4088L35.3103 37.1043L34.964 37.3607C34.7828 37.495 34.5947 37.6227 34.3995 37.7438L33.8637 38.0763L34.3096 38.5222L43.3084 47.5211L43.6264 47.839L43.9762 47.5565L43.9799 47.5534C44.1627 47.4058 44.3548 47.2506 44.5409 47.0869L44.8881 46.7814L44.6106 46.4115L44.5892 46.383Z" fill="white" stroke="white"/>
<path d="M44.222 10.5995L44.6066 10.2152L44.1916 9.86407C44.002 9.70361 43.813 9.55096 43.629 9.40239L43.627 9.40079L43.2773 9.11827L42.9593 9.43621L34.0459 18.3496L33.5883 18.8072L34.1466 19.1345C34.3395 19.2475 34.5357 19.3759 34.7315 19.5088L35.0734 19.7408L35.3656 19.4487L44.222 10.5995Z" fill="white" stroke="white"/>
<path d="M38.8336 22.4591L38.502 21.9011L38.0471 22.3641L38.0016 22.4104L37.8524 22.2612L37.7001 22.1089L37.9379 21.871L38.2484 21.5606L37.9807 21.2126C37.6803 20.8221 37.3519 20.4568 37.0046 20.1094C36.6572 19.7621 36.2919 19.4337 35.9014 19.1333L35.5534 18.8656L35.2429 19.1761L35.1548 19.2643L35.0024 19.1119L34.8501 18.9596L35.2079 18.6019L34.6549 18.2733C32.8382 17.1937 30.7548 16.6214 28.5926 16.6214C26.5349 16.6214 24.5628 17.1342 22.813 18.1096L22.2349 18.4319L22.7029 18.8999L22.7413 18.9382L22.5889 19.0906L22.4387 19.2408L22.1866 18.9858L21.8853 18.6809L21.538 18.9321C21.0508 19.2844 20.5961 19.6798 20.1736 20.1023L20.1735 20.1023L20.1688 20.1072C19.9061 20.3771 19.6469 20.6583 19.4004 20.9571L19.1113 21.3075L19.4326 21.6288L19.6561 21.8524L19.5038 22.0047L19.3515 22.157L19.2918 22.0973L18.8493 21.6548L18.5154 22.1841C17.332 24.0596 16.6926 26.2469 16.6926 28.5214C16.6926 30.6836 17.265 32.767 18.3445 34.5837L18.6731 35.1366L19.0309 34.7789L19.1832 34.9312L19.3355 35.0835L19.2473 35.1717L18.9369 35.4821L19.2046 35.8301C19.505 36.2207 19.8334 36.586 20.1807 36.9333C20.528 37.2806 20.8933 37.609 21.2839 37.9094L21.6319 38.1771L21.9423 37.8667L22.0305 37.7785L22.1828 37.9308L22.3351 38.0831L21.9774 38.4409L22.5303 38.7694C24.347 39.849 26.4304 40.4214 28.5926 40.4214C30.8665 40.4214 33.047 39.7894 34.9304 38.5983L35.4587 38.2642L35.0167 37.8222L34.957 37.7625L35.1093 37.6102L35.2616 37.4579L35.4852 37.6814L35.8016 37.9979L36.1511 37.7183C36.4541 37.4759 36.7388 37.2134 37.0117 36.9404C37.4341 36.518 37.8286 36.0642 38.1798 35.5861L38.4338 35.2401L38.1303 34.9366L37.8711 34.6774L38.0234 34.525L38.1758 34.3727L38.2141 34.411L38.6837 34.8806L39.0051 34.2995C39.9722 32.5515 40.4926 30.573 40.4926 28.5214C40.4926 26.358 39.9126 24.2747 38.8336 22.4591ZM35.2854 21.8209C37.0735 23.6159 38.0605 25.99 38.0605 28.5214C38.0605 31.0457 37.0735 33.4267 35.2857 35.2216C33.4907 37.0094 31.1167 37.9964 28.5855 37.9964C26.0534 37.9964 23.6726 37.0088 21.8853 35.2216C20.0911 33.4274 19.1105 31.0537 19.1105 28.5214C19.1105 25.9894 20.0979 23.6087 21.885 21.8215C23.68 20.0334 26.0541 19.0464 28.5855 19.0464C29.8514 19.0464 31.0765 19.2967 32.2145 19.7641C33.3487 20.23 34.3906 20.9262 35.2854 21.8209Z" fill="white" stroke="white"/>
<path d="M38.5222 33.305L38.1711 32.9539L37.8176 33.3025L37.3117 33.8012L36.9531 34.1547L37.3092 34.5108L37.8293 35.0309L38.2641 35.4657L38.6011 34.9514C38.7451 34.7316 38.8723 34.5143 38.9955 34.2969L39.1831 33.9659L38.914 33.6968L38.5222 33.305Z" fill="white" stroke="white"/>
<path d="M38.7573 23.0681L39.0334 22.792L38.8325 22.4573C38.7029 22.2412 38.5643 22.0171 38.4065 21.8042L38.0613 21.3381L37.6512 21.7482L37.1382 22.2612L36.7847 22.6148L37.1382 22.9683L37.6441 23.4742L37.9976 23.8278L38.3512 23.4742L38.7573 23.0681Z" fill="white" stroke="white"/>
<path d="M38.0163 33.8108L37.6627 33.4573L37.3092 33.8108L36.8033 34.3167L36.4498 34.6703L36.8033 35.0238L37.4161 35.6366L37.8334 36.0539L38.1765 35.5736L38.1801 35.5686C38.3202 35.3725 38.4686 35.1647 38.6035 34.9549L38.8214 34.6159L38.5364 34.331L38.0163 33.8108Z" fill="white" stroke="white"/>
<path d="M38.3654 22.4482L38.6702 22.1434L38.4136 21.797C38.3439 21.7029 38.274 21.6067 38.2025 21.5084L38.2018 21.5075C38.131 21.4102 38.0587 21.3107 37.9861 21.2128L37.6409 20.7467L37.2308 21.1568L36.6394 21.7482L36.2859 22.1018L36.6394 22.4553L37.1453 22.9612L37.4989 23.3147L37.8524 22.9612L38.3654 22.4482Z" fill="white" stroke="white"/>
<path d="M35.608 36.3901L35.2545 36.0365L34.9009 36.3901L34.395 36.8959L34.0415 37.2495L34.395 37.6031L34.9081 38.1161L35.2128 38.4208L35.5592 38.1643L35.5648 38.1601C35.7536 38.0203 35.9569 37.8697 36.1546 37.7024L36.5694 37.3514L36.1852 36.9672L35.608 36.3901Z" fill="white" stroke="white"/>
<path d="M35.9429 19.8761L36.3456 19.4734L35.8942 19.1262C35.7019 18.9783 35.4964 18.8315 35.2995 18.6909L35.2957 18.6881L34.951 18.4419L34.6515 18.7414L34.2882 19.1048L33.9346 19.4584L34.2882 19.8119L34.794 20.3178L35.1476 20.6714L35.5011 20.3178L35.9429 19.8761Z" fill="white" stroke="white"/>
<path d="M35.1022 36.896L34.7461 36.5399L34.3926 36.8985L33.8938 37.4044L33.5453 37.7579L33.8963 38.1089L34.3096 38.5222L34.5945 38.8072L34.9335 38.5892C35.1401 38.4564 35.3463 38.3165 35.5522 38.1694L36.0325 37.8263L35.6152 37.409L35.1022 36.896Z" fill="white" stroke="white"/>
<path d="M35.3658 19.4486L35.8006 19.0138L35.2862 18.6768C35.182 18.6085 35.0798 18.5421 34.9785 18.4764L34.9781 18.4761C34.8764 18.4101 34.7757 18.3448 34.6735 18.2778L34.3334 18.055L34.0459 18.3425L33.7894 18.599L33.4358 18.9525L33.7894 19.3061L34.2953 19.8119L34.6488 20.1655L35.0024 19.8119L35.3658 19.4486Z" fill="white" stroke="white"/>
<path d="M23.8019 19.2918L24.1587 18.9351L23.7987 18.5815L23.3997 18.1897L23.1308 17.9255L22.8029 18.1114C22.5854 18.2346 22.3681 18.3618 22.1483 18.5058L21.634 18.8428L22.0688 19.2776L22.5889 19.7977L22.9425 20.1512L23.296 19.7977L23.8019 19.2918Z" fill="white" stroke="white"/>
<path d="M14.5537 9.34359L14.2357 9.02565L13.8859 9.30817C13.8305 9.35294 13.7721 9.3994 13.712 9.4472C13.585 9.54815 13.4505 9.65504 13.3214 9.76432L12.9066 10.1153L13.2908 10.4996L22.0688 19.2776L22.3611 19.5698L22.7031 19.3378C22.883 19.2156 23.0789 19.1043 23.2959 18.9814L23.8675 18.6575L23.4029 18.1928L14.5537 9.34359Z" fill="white" stroke="white"/>
<path d="M23.3887 38.4296L23.7448 38.0735L23.3862 37.72L22.8803 37.2212L22.5268 36.8727L22.1757 37.2237L21.8123 37.5871L21.3847 38.0148L21.8851 38.3544C22.0884 38.4923 22.3054 38.6347 22.5258 38.7639L22.859 38.9592L23.1322 38.6861L23.3887 38.4296Z" fill="white" stroke="white"/>
<path d="M23.296 19.7977L23.6472 19.4466L23.2985 19.093L22.7855 18.5729L22.498 18.2814L22.1555 18.5058C21.9449 18.6438 21.7365 18.785 21.5334 18.9355L21.0701 19.2787L21.4754 19.6887L22.081 20.3015L22.4345 20.6592L22.7902 20.3036L23.296 19.7977Z" fill="white" stroke="white"/>
<path d="M23.1321 38.6861L23.578 38.2402L23.0423 37.9077C22.8348 37.7789 22.6334 37.6539 22.4327 37.5224L22.0926 37.2996L21.8052 37.5871L12.9345 46.4577L12.5503 46.842L12.9651 47.193C13.1548 47.3535 13.3438 47.5061 13.5278 47.6548L13.5297 47.6562L13.8795 47.9388L14.1974 47.6208L23.1321 38.6861Z" fill="white" stroke="white"/>
<path d="M22.8828 37.9237L23.2363 37.5701L22.8828 37.2166L22.3769 36.7107L22.0234 36.3572L21.6698 36.7107L21.2281 37.1525L20.8276 37.553L21.2746 37.9007C21.473 38.055 21.6743 38.2042 21.8851 38.3473L22.2271 38.5794L22.5194 38.2871L22.8828 37.9237Z" fill="white" stroke="white"/>
<path d="M13.9979 9.79244L13.6799 9.47451L13.3302 9.75703L13.3263 9.76011C13.1436 9.90769 12.9515 10.0629 12.7654 10.2266L12.3655 10.5786L12.742 10.9554L21.4773 19.6978L21.7768 19.9975L22.1216 19.7512C22.323 19.6074 22.5124 19.4722 22.6998 19.3517L23.2217 19.0162L22.783 18.5776L13.9979 9.79244Z" fill="white" stroke="white"/>
<path d="M22.1659 37.9406L13.2952 46.8112C13.2359 46.759 13.1757 46.7075 13.1155 46.6561C12.9952 46.5532 12.8749 46.4502 12.7609 46.341L21.5887 37.5131C21.774 37.6627 21.9664 37.8052 22.1659 37.9406Z" fill="white"/>
<path d="M22.1659 37.9406L13.2952 46.8112C13.2359 46.759 13.1757 46.7075 13.1155 46.6561C12.9952 46.5532 12.8749 46.4502 12.7609 46.341L21.5887 37.5131C21.774 37.6627 21.9664 37.8052 22.1659 37.9406Z" stroke="white"/>
<path d="M20.7168 22.2059L21.0703 21.8524L20.7168 21.4988L20.1397 20.9217L19.7554 20.5375L19.4044 20.9523C19.2372 21.15 19.0866 21.3533 18.9468 21.542L18.9426 21.5477L18.686 21.894L18.9908 22.1988L19.5038 22.7118L19.8574 23.0654L20.2109 22.7118L20.7168 22.2059ZM20.3632 21.8524L20.141 21.6302L20.2109 22.0047L20.3632 21.8524Z" fill="white" stroke="white"/>
<path d="M20.3891 35.43L20.7426 35.0764L20.3891 34.7228L19.8832 34.217L19.5296 33.8634L19.1761 34.217L18.8127 34.5803L18.5204 34.8726L18.7525 35.2147C18.8955 35.4254 19.0448 35.6268 19.1991 35.8251L19.5468 36.2722L19.9473 35.8717L20.3891 35.43Z" fill="white" stroke="white"/>
<path d="M20.2109 22.7118L20.567 22.3558L20.2084 22.0022L19.6954 21.4964L19.2854 21.092L18.9426 21.5548C18.7918 21.7583 18.6488 21.9691 18.5134 22.1872L18.3043 22.5241L18.5847 22.8044L18.9979 23.2177L19.3515 23.5712L19.705 23.2177L20.2109 22.7118Z" fill="white" stroke="white"/>
<path d="M11.4329 12.215L11.0643 11.8464L10.7114 12.23C10.5426 12.4134 10.3809 12.5972 10.2262 12.7813L9.93149 13.1322L10.2554 13.4563L18.9906 22.1987L19.4007 22.6091L19.7461 22.1429C19.884 21.9568 20.0293 21.7699 20.175 21.5894L20.4576 21.2396L20.1396 20.9217L11.4329 12.215Z" fill="white" stroke="white"/>
<path d="M19.9473 35.8788L20.2594 35.5667L19.9884 35.2183C19.8434 35.0319 19.7077 34.8485 19.5799 34.6603L19.2402 34.1596L18.8125 34.5876L9.96326 43.444L9.63938 43.7681L9.9341 44.119C10.0842 44.2977 10.244 44.4866 10.4047 44.6692L10.7568 45.0693L11.1336 44.6924L19.9473 35.8788Z" fill="white" stroke="white"/>
<path d="M19.8903 34.9312L20.2414 34.5801L19.8928 34.2266L19.394 33.7207L19.0405 33.3621L18.6844 33.7182L18.4279 33.9747L18.1548 34.2478L18.3501 34.5811C18.4793 34.8015 18.6217 35.0185 18.7596 35.2217L19.0992 35.7222L19.5269 35.2945L19.8903 34.9312Z" fill="white" stroke="white"/>
<path d="M10.9627 12.7493L10.5784 12.3651L10.2274 12.7799C10.1821 12.8334 10.135 12.8885 10.0869 12.9446C9.97779 13.072 9.86403 13.2048 9.75703 13.3373L9.47439 13.6873L9.79259 14.0052L18.592 22.7974L19.0306 23.2358L19.366 22.7141C19.4897 22.5217 19.6204 22.329 19.7584 22.1359L20.0046 21.7912L19.705 21.4917L10.9627 12.7493Z" fill="white" stroke="white"/>
<path d="M19.1662 34.941L10.317 43.7974C10.1602 43.6121 10.0106 43.4269 9.8681 43.2416L18.7815 34.3282C18.9026 34.5349 19.0309 34.7415 19.1662 34.941Z" fill="white"/>
<path d="M19.1662 34.941L10.317 43.7974C10.1602 43.6121 10.0106 43.4269 9.8681 43.2416L18.7815 34.3282C18.9026 34.5349 19.0309 34.7415 19.1662 34.941Z" stroke="white"/>
<path d="M13.626 8.41597L13.27 8.06262L12.9178 8.41984L12.419 8.92571L12.0705 9.27925L12.4215 9.6303L13.2908 10.4995L13.6161 10.8249L13.9673 10.5277C14.143 10.379 14.3274 10.2355 14.5121 10.0934L14.9652 9.74489L14.5594 9.34222L13.626 8.41597Z" fill="white" stroke="white"/>
<path d="M14.1974 47.6208L14.5906 47.2276L14.158 46.8783C13.9721 46.7281 13.7913 46.582 13.6111 46.4295L13.2599 46.1323L12.9346 46.4577L12.7351 46.6572L12.3815 47.0107L12.7351 47.3643L13.2409 47.8701L13.5945 48.2237L13.9481 47.8702L14.1974 47.6208Z" fill="white" stroke="white"/>
<path d="M13.1216 8.91607L12.768 8.56252L12.4145 8.91607L11.9086 9.42194L11.555 9.7755L11.9086 10.1291L12.7351 10.9555L13.0668 11.2873L13.419 10.9774C13.5922 10.8249 13.7721 10.6727 13.9514 10.5278L14.384 10.1785L13.9908 9.78532L13.1216 8.91607Z" fill="white" stroke="white"/>
<path d="M13.6488 47.1648L14.0331 46.7806L13.6183 46.4296C13.6054 46.4187 13.5927 46.408 13.5801 46.3973C13.4074 46.2512 13.2496 46.1178 13.0923 45.973L12.7394 45.6483L12.4002 45.9874L12.2364 46.1513L11.8828 46.5049L12.2364 46.8584L12.7422 47.3643L13.0958 47.7179L13.4493 47.3643L13.6488 47.1648Z" fill="white" stroke="white"/>
<path d="M13.5918 8.36629L13.2828 7.9645L12.8852 8.27905C12.0516 8.93869 11.2486 9.64784 10.4617 10.4058L10.4617 10.4057L10.4551 10.4123C9.83833 11.0291 9.25687 11.6686 8.71109 12.3381L8.39408 12.727L8.78403 13.0426L8.93366 13.1638L9.28352 13.447L9.60181 13.1287L10.1077 12.6228L10.26 12.4705L10.7116 12.9221L11.08 13.2904L11.4329 12.9073C11.6794 12.6397 11.9238 12.3813 12.1811 12.1241C12.579 11.7261 12.9907 11.3424 13.409 10.9799L13.8148 10.6282L13.4351 10.2485L12.9621 9.77552L13.1144 9.6232L12.9804 9.48912L13.1144 9.6232L13.6203 9.11732L13.9307 8.80689L13.6631 8.45891L13.5918 8.36629Z" fill="white" stroke="white"/>
<path d="M10.6278 11.4098L10.2717 11.0537L9.91821 11.4123L9.41946 11.9182L9.0709 12.2717L9.42196 12.6228L10.2556 13.4564L10.6412 13.8421L10.992 13.4245C11.1366 13.2523 11.2884 13.0798 11.4474 12.907L11.7721 12.5541L11.4329 12.2149L10.6278 11.4098Z" fill="white" stroke="white"/>
<path d="M11.1337 44.6924L11.4654 44.3607L11.1555 44.0086C11.003 43.8353 10.8508 43.6554 10.706 43.4761L10.3566 43.0436L9.96346 43.4367L9.74258 43.6576L9.38901 44.0112L9.74259 44.3647L10.2485 44.8706L10.602 45.2241L10.9555 44.8706L11.1337 44.6924Z" fill="white" stroke="white"/>
<path d="M10.1219 11.9157L9.77089 11.5647L9.41735 11.9132L8.91148 12.4119L8.55289 12.7655L8.90896 13.1216L9.79246 14.0051L10.1856 14.3982L10.535 13.9657C10.6809 13.7851 10.8274 13.6105 10.9837 13.4258L11.2809 13.0746L10.9556 12.7493L10.1219 11.9157Z" fill="white" stroke="white"/>
<path d="M10.6706 44.1509L10.9959 43.8256L10.6987 43.4744C10.5463 43.2942 10.4002 43.1134 10.25 42.9275L9.90063 42.4949L9.50747 42.8881L9.23672 43.1588L8.88316 43.5124L9.23672 43.8659L9.74259 44.3718L10.0961 44.7254L10.4497 44.3718L10.6706 44.1509Z" fill="white" stroke="white"/>
</g>
</svg>
