<svg width="105" height="104" viewBox="0 0 105 104" fill="none" xmlns="http://www.w3.org/2000/svg">
<g opacity="0.8">
<path d="M12.5237 36.7461C12.5237 50.5636 23.6982 61.7784 37.4696 61.7784C51.241 61.7784 62.4155 50.5636 62.4155 36.7461C62.4155 22.9286 51.241 11.7139 37.4696 11.7139C23.6982 11.7139 12.5237 22.9286 12.5237 36.7461ZM15.6454 36.6935C15.6454 24.6238 25.4441 14.7921 37.4696 14.7921C49.4944 14.7921 59.2938 24.6756 59.2938 36.7461C59.2938 48.8162 49.5472 58.6476 37.4696 58.6476C25.3928 58.6476 15.6454 48.7644 15.6454 36.6935Z" fill="white" stroke="white" stroke-width="0.5"/>
<path d="M37.0932 51.4191C35.4215 51.4191 34.0632 50.0886 34.0632 48.5023V37.2446C34.0632 35.6072 35.4215 34.3279 37.0409 34.3279C38.7126 34.3279 40.0187 35.6583 40.0187 37.2446V48.5023C40.1231 50.0886 38.7649 51.4191 37.0932 51.4191Z" fill="white"/>
<path d="M37.0932 51.4191C35.4215 51.4191 34.0632 50.0886 34.0632 48.5023V37.2446C34.0632 35.6072 35.4215 34.3279 37.0409 34.3279C38.7126 34.3279 40.0187 35.6583 40.0187 37.2446V48.5023C40.1231 50.0886 38.7649 51.4191 37.0932 51.4191Z" stroke="white"/>
<path d="M37.0438 28.7642C38.6899 28.7642 40.0243 27.4251 40.0243 25.7732C40.0243 24.1213 38.6899 22.7822 37.0438 22.7822C35.3977 22.7822 34.0632 24.1213 34.0632 25.7732C34.0632 27.4251 35.3977 28.7642 37.0438 28.7642Z" fill="white"/>
<path d="M37.0438 28.7642C38.6899 28.7642 40.0243 27.4251 40.0243 25.7732C40.0243 24.1213 38.6899 22.7822 37.0438 22.7822C35.3977 22.7822 34.0632 24.1213 34.0632 25.7732C34.0632 27.4251 35.3977 28.7642 37.0438 28.7642Z" stroke="white"/>
</g>
</svg>
