<svg width="59" height="58" viewBox="0 0 59 58" fill="none" xmlns="http://www.w3.org/2000/svg">
<g opacity="0.8">
<path d="M29.5 4.75601C28.5442 4.75601 27.7536 5.38241 27.5058 6.25241L22.4436 21.6224H5.8292C4.6846 21.6224 3.776 22.6084 3.776 23.7452C3.776 24.4412 4.13 25.0676 4.661 25.4272C4.9914 25.6476 18.0776 35.0436 18.0776 35.0436C18.0776 35.0436 13.0508 50.228 12.9564 50.4716C12.8856 50.692 12.8266 50.9356 12.8266 51.1908C12.8266 52.3276 13.7588 53.244 14.9034 53.244C15.34 53.244 15.753 53.1048 16.0952 52.8728L29.5 43.2796C29.5 43.2796 42.598 52.664 42.9048 52.8728C43.247 53.1048 43.66 53.244 44.0966 53.244C45.2412 53.244 46.1734 52.316 46.1734 51.1908C46.1734 50.9356 46.1144 50.692 46.0436 50.4716C45.9492 50.228 40.9224 35.0552 40.9224 35.0552C40.9224 35.0552 54.0086 25.6592 54.339 25.4388C54.87 25.0676 55.224 24.4528 55.224 23.7452C55.224 22.62 54.339 21.634 53.1826 21.634H36.58L31.4942 6.25241C31.2464 5.39401 30.4558 4.75601 29.5 4.75601Z" fill="white"/>
</g>
</svg>
